<svg width="152" height="52" viewBox="0 0 152 52" fill="none" xmlns="http://www.w3.org/2000/svg">
<g opacity="0.7">
<path d="M138.668 1.00016H12.9183C12.4599 1.00016 12.0071 1.00016 11.5499 1.00266C11.1672 1.00516 10.7876 1.01242 10.4012 1.01854C9.56186 1.02841 8.72448 1.10226 7.89635 1.23942C7.06938 1.37958 6.26832 1.64381 5.52026 2.02317C4.77311 2.40575 4.09042 2.90287 3.49695 3.49649C2.90037 4.08845 2.40307 4.77267 2.02418 5.52285C1.64425 6.27153 1.3808 7.07382 1.24294 7.90199C1.10376 8.72912 1.02887 9.56579 1.01894 10.4045C1.00734 10.7877 1.00611 11.1723 1 11.5556V40.4483C1.00611 40.8364 1.00734 41.2124 1.01894 41.6007C1.02888 42.4393 1.10377 43.2759 1.24294 44.103C1.38042 44.9317 1.64388 45.7344 2.02418 46.4834C2.4029 47.2311 2.90027 47.9126 3.49695 48.5013C4.08817 49.0975 4.7713 49.595 5.52026 49.9746C6.26832 50.355 7.06929 50.6208 7.89635 50.7631C8.72462 50.8992 9.56192 50.9731 10.4012 50.9841C10.7876 50.9926 11.1672 50.9975 11.5499 50.9975C12.0071 51 12.46 51 12.9183 51H138.668C139.117 51 139.574 51 140.023 50.9975C140.404 50.9975 140.794 50.9926 141.175 50.9841C142.013 50.9737 142.849 50.8998 143.675 50.7631C144.505 50.6198 145.309 50.3541 146.061 49.9746C146.809 49.5948 147.491 49.0973 148.082 48.5013C148.677 47.9103 149.176 47.2293 149.559 46.4834C149.937 45.7339 150.197 44.9312 150.333 44.103C150.472 43.2758 150.55 42.4394 150.565 41.6007C150.57 41.2124 150.57 40.8364 150.57 40.4483C150.58 39.9942 150.58 39.5425 150.58 39.081V12.9203C150.58 12.4625 150.58 12.0084 150.57 11.5556C150.57 11.1723 150.57 10.7877 150.565 10.4044C150.55 9.56566 150.472 8.72918 150.333 7.90194C150.197 7.07425 149.936 6.27202 149.559 5.5228C148.788 4.01915 147.564 2.79519 146.061 2.02306C145.309 1.64462 144.505 1.38046 143.675 1.23931C142.849 1.10154 142.013 1.02767 141.175 1.01836C140.794 1.01226 140.404 1.00494 140.023 1.0025C139.574 1 139.117 1 138.668 1V1.00016Z" stroke="black"/>
<path d="M32.2462 25.8617C32.2746 23.6565 33.4307 21.6196 35.3094 20.4646C34.1189 18.7642 32.1962 17.7248 30.1215 17.6599C27.9387 17.4308 25.8226 18.9661 24.7102 18.9661C23.5764 18.9661 21.8638 17.6827 20.0197 17.7206C17.5932 17.799 15.386 19.1451 14.2055 21.2665C11.6916 25.6189 13.5667 32.0157 15.9749 35.5339C17.1797 37.2567 18.5878 39.1811 20.4303 39.1128C22.2333 39.0381 22.9067 37.9631 25.0831 37.9631C27.2392 37.9631 27.871 39.1128 29.7509 39.0695C31.6856 39.0381 32.9045 37.339 34.0671 35.5999C34.9328 34.3724 35.5989 33.0157 36.0409 31.5801C33.743 30.6082 32.2489 28.3566 32.2462 25.8617Z" fill="black"/>
<path d="M28.6952 15.3461C29.7501 14.0798 30.2698 12.4521 30.1439 10.8087C28.5323 10.978 27.0436 11.7483 25.9745 12.966C24.9188 14.1675 24.384 15.7393 24.4878 17.3354C26.121 17.3522 27.6718 16.619 28.6952 15.3461Z" fill="black"/>
<path fill-rule="evenodd" clip-rule="evenodd" d="M47.9602 34.9248H53.8769L55.2966 39.1204H57.8454L52.2412 23.5979H49.6374L44.0332 39.1204H46.5393L47.9602 34.9248ZM53.2628 32.9887H48.5728L50.8861 26.1797H50.9508L53.2628 32.9887Z" fill="black"/>
<path fill-rule="evenodd" clip-rule="evenodd" d="M65.2258 39.2388C68.0664 39.2388 69.9487 36.9793 69.9487 33.4625C69.9487 29.9554 68.0554 27.6849 65.1831 27.6849C63.7051 27.6373 62.3206 28.406 61.5796 29.6857H61.5369V27.8033H59.2883V42.8643H61.6113V37.2589H61.6651C62.3746 38.5466 63.7576 39.3157 65.2258 39.2388ZM64.5695 29.665C66.3762 29.665 67.5602 31.1713 67.5602 33.4626H67.5602C67.5602 35.7746 66.3762 37.2699 64.5695 37.2699C62.7946 37.2699 61.6008 35.7428 61.6008 33.4626C61.6008 31.2031 62.7946 29.665 64.5695 29.665Z" fill="black"/>
<path fill-rule="evenodd" clip-rule="evenodd" d="M77.6817 39.2388C80.5222 39.2388 82.4052 36.9793 82.4052 33.4625C82.4052 29.9554 80.5112 27.6849 77.6389 27.6849C76.1609 27.6373 74.7764 28.406 74.0354 29.6857H73.9927V27.8033H71.7441V42.8643H74.0671V37.2589H74.1209C74.8304 38.5466 76.2134 39.3157 77.6817 39.2388ZM77.0252 29.665C78.8318 29.665 80.0159 31.1713 80.0159 33.4626C80.0159 35.7746 78.8318 37.2699 77.0252 37.2699C75.2503 37.2699 74.0564 35.7428 74.0564 33.4626C74.0564 31.2031 75.2503 29.665 77.0252 29.665Z" fill="black"/>
<path d="M90.6355 34.7954C90.8077 36.3347 92.303 37.3454 94.3465 37.3454C96.3045 37.3454 97.7132 36.3347 97.7132 34.9467C97.7132 33.7419 96.8636 33.0205 94.8518 32.5261L92.8401 32.0415C89.9898 31.353 88.6666 30.02 88.6666 27.8569C88.6666 25.1787 91.0005 23.3391 94.3135 23.3391C97.5948 23.3391 99.8433 25.1787 99.919 27.8569H97.574C97.4336 26.3079 96.1531 25.3728 94.2818 25.3728C92.4104 25.3728 91.1299 26.3189 91.1299 27.6958C91.1299 28.7932 91.9478 29.439 93.9485 29.9333L95.6587 30.3532C98.8435 31.1064 100.166 32.3857 100.166 34.6562C100.166 37.5602 97.8535 39.3791 94.1743 39.3791C90.7319 39.3791 88.4077 37.6029 88.2576 34.7953L90.6355 34.7954Z" fill="black"/>
<path d="M105.182 25.125V27.8032H107.334V29.6428H105.182V35.8818C105.182 36.851 105.613 37.3027 106.559 37.3027C106.815 37.2982 107.07 37.2803 107.323 37.2489V39.0775C106.898 39.157 106.466 39.193 106.033 39.185C103.742 39.185 102.848 38.3244 102.848 36.1295V29.6428H101.203V27.8032H102.848V25.125H105.182Z" fill="black"/>
<path fill-rule="evenodd" clip-rule="evenodd" d="M113.948 27.664C110.677 27.664 108.58 29.9016 108.58 33.4624C108.58 37.0329 110.657 39.2607 113.948 39.2607C117.24 39.2607 119.316 37.0329 119.316 33.4624C119.316 29.9015 117.229 27.664 113.948 27.664ZM113.948 29.5781C115.83 29.5781 116.95 31.0198 116.95 33.4624H116.95C116.95 35.9148 115.83 37.3454 113.948 37.3454C112.066 37.3454 110.946 35.9148 110.946 33.4624C110.946 31.0308 112.066 29.5781 113.948 29.5781Z" fill="black"/>
<path d="M121.231 27.8032H123.446V29.7295H123.5C123.809 28.4895 124.945 27.6361 126.222 27.6848C126.49 27.6839 126.757 27.713 127.018 27.7715V29.9443C126.68 29.8411 126.328 29.7937 125.974 29.804C125.291 29.7763 124.63 30.0484 124.165 30.549C123.7 31.0496 123.476 31.7286 123.554 32.4077V39.1203H121.231L121.231 27.8032Z" fill="black"/>
<path fill-rule="evenodd" clip-rule="evenodd" d="M132.856 39.2607C135.415 39.2607 137.416 37.8508 137.729 35.7963L135.523 35.7963C135.1 36.8464 134.037 37.4938 132.909 37.3881C132.064 37.4192 131.246 37.0857 130.664 36.4724C130.081 35.8591 129.79 35.0251 129.865 34.1826V34.0422H137.858V33.2463C137.858 29.8149 135.889 27.664 132.758 27.664C129.574 27.664 127.52 29.9663 127.52 33.5161C127.52 37.0549 129.563 39.2607 132.856 39.2607ZM135.534 32.4188L129.876 32.4188C129.874 31.6547 130.177 30.9215 130.719 30.3821C131.26 29.8428 131.994 29.5419 132.758 29.5465C133.516 29.5302 134.247 29.8309 134.774 30.3761C135.301 30.9214 135.576 31.6617 135.534 32.4188Z" fill="black"/>
<path fill-rule="evenodd" clip-rule="evenodd" d="M50.9144 12.9362C50.2346 12.2183 49.2686 11.8431 48.2825 11.9139H45.5884V19.3724H48.2825C50.5041 19.3724 51.792 18.0027 51.792 15.6199C51.9163 14.6391 51.5942 13.6541 50.9144 12.9362ZM48.1531 18.3174H46.7469V12.9677H48.1531C48.8542 12.9288 49.5359 13.2052 50.0119 13.7214C50.4879 14.2375 50.7083 14.9394 50.6128 15.635C50.7158 16.3334 50.4985 17.0411 50.0213 17.5615C49.5441 18.0819 48.8579 18.3596 48.1531 18.3174Z" fill="black"/>
<path fill-rule="evenodd" clip-rule="evenodd" d="M54.3491 14.036C53.488 14.5704 53.0042 15.5468 53.1007 16.5556C53.0024 17.5656 53.4857 18.5439 54.3476 19.0794C55.2096 19.615 56.3007 19.615 57.1627 19.0794C58.0246 18.5439 58.5079 17.5656 58.4096 16.5556C58.5061 15.5468 58.0223 14.5704 57.1611 14.036C56.3 13.5016 55.2103 13.5016 54.3491 14.036ZM55.7562 14.6222C56.7181 14.6222 57.2661 15.3357 57.2661 16.5558H57.2662C57.2662 17.7807 56.7181 18.4936 55.7562 18.4936C54.7906 18.4936 54.2474 17.7856 54.2474 16.5558C54.2474 15.3357 54.7906 14.6222 55.7562 14.6222Z" fill="black"/>
<path d="M65.4663 19.3723H64.3139L63.1506 15.2268H63.0627L61.9043 19.3723H60.7629L59.2114 13.7436H60.3381L61.3464 18.0386H61.4294L62.5867 13.7436H63.6523L64.8096 18.0386H64.8974L65.9009 13.7436H67.0117L65.4663 19.3723Z" fill="black"/>
<path d="M68.3169 13.7435H69.3862V14.6377H69.4692C69.7579 13.9793 70.4324 13.5766 71.1489 13.6349C71.7037 13.5932 72.2473 13.806 72.6263 14.2133C73.0053 14.6205 73.1786 15.178 73.0972 15.7284V19.3721H71.9863V16.0073C71.9863 15.1028 71.5933 14.6529 70.7717 14.6529C70.3954 14.6354 70.0303 14.7831 69.7719 15.0573C69.5136 15.3314 69.3879 15.7047 69.4277 16.0793V19.3722H68.3169L68.3169 13.7435Z" fill="black"/>
<path d="M74.8667 11.5464H75.9775V19.3723H74.8667V11.5464Z" fill="black"/>
<path fill-rule="evenodd" clip-rule="evenodd" d="M78.771 14.0357C77.9097 14.5701 77.4259 15.5465 77.5223 16.5555C77.4241 17.5655 77.9075 18.5438 78.7695 19.0793C79.6315 19.6148 80.7226 19.6148 81.5846 19.0793C82.4466 18.5438 82.93 17.5655 82.8318 16.5555C82.9282 15.5465 82.4444 14.5701 81.5831 14.0357C80.7219 13.5013 79.6322 13.5013 78.771 14.0357ZM80.1785 14.6218C81.1404 14.6218 81.6885 15.3353 81.6885 16.5554H81.6885C81.6885 17.7804 81.1404 18.4933 80.1785 18.4933C79.213 18.4933 78.6698 17.7853 78.6698 16.5554C78.6698 15.3353 79.213 14.6218 80.1785 14.6218Z" fill="black"/>
<path fill-rule="evenodd" clip-rule="evenodd" d="M86.0937 16.1001C84.7546 16.1831 84.0002 16.7672 84.0002 17.7804C84.0021 18.2608 84.2071 18.718 84.5646 19.039C84.9221 19.3599 85.3986 19.5147 85.8765 19.465C86.5581 19.4965 87.2039 19.1589 87.5671 18.5812H87.655V19.3722H88.7244V15.5264C88.7244 14.3374 87.9285 13.6349 86.5173 13.6349C85.2405 13.6349 84.3311 14.255 84.2175 15.2218H85.293C85.4163 14.8239 85.846 14.5962 86.4661 14.5962C87.2253 14.5962 87.6184 14.9319 87.6184 15.5264V16.0122L86.0937 16.1001ZM87.6175 16.8288V17.2994C87.5932 17.6582 87.4243 17.9917 87.1496 18.2236C86.8748 18.4556 86.5177 18.5661 86.16 18.5299C85.5557 18.5299 85.1163 18.2351 85.1163 17.7285C85.1163 17.2323 85.4678 16.9686 86.243 16.9167L87.6175 16.8288Z" fill="black"/>
<path fill-rule="evenodd" clip-rule="evenodd" d="M92.521 13.6502C91.0989 13.6502 90.1846 14.777 90.1846 16.5555C90.1846 18.3383 91.0891 19.4651 92.521 19.465C93.247 19.4918 93.9278 19.1135 94.2886 18.483H94.3765V19.3723H95.4409V11.5464H94.3301V14.6377H94.2471C93.9116 14.0019 93.2391 13.6172 92.521 13.6502ZM92.8362 18.4677C91.895 18.4677 91.3323 17.7494 91.3323 16.5555H91.3323C91.3323 15.3714 91.9011 14.6482 92.8362 14.6482C93.7664 14.6482 94.3511 15.3873 94.3511 16.5604C94.3511 17.739 93.7724 18.4677 92.8362 18.4677Z" fill="black"/>
<path fill-rule="evenodd" clip-rule="evenodd" d="M101.285 14.036C100.424 14.5704 99.9405 15.5468 100.037 16.5556C99.9387 17.5656 100.422 18.5439 101.284 19.0794C102.146 19.615 103.237 19.615 104.099 19.0794C104.961 18.5439 105.444 17.5656 105.346 16.5556C105.442 15.5468 104.959 14.5704 104.097 14.036C103.236 13.5016 102.147 13.5016 101.285 14.036ZM102.693 14.6222C103.655 14.6222 104.203 15.3357 104.203 16.5558C104.203 17.7807 103.655 18.4936 102.693 18.4936C101.728 18.4936 101.184 17.7856 101.184 16.5558C101.184 15.3357 101.727 14.6222 102.693 14.6222Z" fill="black"/>
<path d="M106.836 13.7435H107.905V14.6377H107.988C108.277 13.9793 108.951 13.5766 109.668 13.6349C110.223 13.5932 110.766 13.806 111.145 14.2133C111.524 14.6205 111.698 15.178 111.616 15.7284V19.3721H110.505V16.0073C110.505 15.1028 110.112 14.6529 109.291 14.6529C108.914 14.6354 108.549 14.7831 108.291 15.0573C108.033 15.3314 107.907 15.7047 107.947 16.0793V19.3722H106.836V13.7435Z" fill="black"/>
<path d="M117.895 12.3423V13.7693H119.114V14.705H117.895V17.5992C117.895 18.1888 118.137 18.447 118.69 18.447C118.832 18.4465 118.973 18.438 119.114 18.4214V19.3466C118.915 19.3823 118.712 19.4013 118.51 19.4034C117.274 19.4034 116.782 18.9688 116.782 17.8836V14.7049H115.889V13.7692H116.782V12.3423H117.895Z" fill="black"/>
<path d="M120.63 11.5464H121.731V14.6482H121.819C122.121 13.9841 122.808 13.5808 123.535 13.6399C124.087 13.6098 124.623 13.8274 124.998 14.2331C125.373 14.6389 125.547 15.1907 125.474 15.7382V19.3723H124.362V16.0123C124.362 15.1132 123.943 14.6579 123.158 14.6579C122.772 14.6262 122.391 14.7667 122.118 15.0418C121.844 15.317 121.706 15.6987 121.741 16.0849V19.3722H120.63L120.63 11.5464Z" fill="black"/>
<path fill-rule="evenodd" clip-rule="evenodd" d="M129.513 19.4808C130.613 19.6001 131.64 18.9142 131.951 17.8524L130.882 17.8524C130.616 18.3304 130.087 18.6 129.543 18.5348C129.124 18.5394 128.722 18.3671 128.437 18.0601C128.152 17.7531 128.009 17.3399 128.044 16.9223V16.86H132.019V16.4724C132.019 14.7049 131.074 13.6349 129.508 13.6349C128.755 13.6285 128.037 13.9489 127.539 14.5131C127.041 15.0773 126.813 15.8298 126.912 16.5756C126.81 17.3193 127.039 18.0706 127.54 18.6301C128.041 19.1896 128.762 19.5007 129.513 19.4808ZM130.887 16.0384H128.044C128.039 15.6503 128.191 15.2766 128.466 15.002C128.74 14.7275 129.114 14.5754 129.502 14.5803C129.885 14.5715 130.254 14.7249 130.518 15.0026C130.781 15.2802 130.916 15.6564 130.887 16.0384Z" fill="black"/>
</g>
</svg>
