<?xml version="1.0" encoding="utf-8"?>
<!-- Generator: Adobe Illustrator 23.0.6, SVG Export Plug-In . SVG Version: 6.00 Build 0)  -->
<svg version="1.1" id="Layer_1" xmlns="http://www.w3.org/2000/svg" xmlns:xlink="http://www.w3.org/1999/xlink" x="0px" y="0px"
	 viewBox="0 0 152 52" style="enable-background:new 0 0 152 52;" xml:space="preserve">
<style type="text/css">
	.st0{fill:#FFFFFF;stroke:#000000;}
	.st1{fill-rule:evenodd;clip-rule:evenodd;}
</style>
<path class="st0" d="M139.3,1h-126c-0.5,0-0.9,0-1.4,0c-0.4,0-0.8,0-1.2,0C10,1,9.1,1.1,8.3,1.2C7.5,1.4,6.7,1.6,5.9,2
	c-0.7,0.4-1.4,0.9-2,1.5c-0.6,0.6-1.1,1.3-1.5,2C2,6.3,1.8,7.1,1.6,7.9c-0.1,0.8-0.2,1.7-0.2,2.5c0,0.4,0,0.8,0,1.2v28.9
	c0,0.4,0,0.8,0,1.2c0,0.8,0.1,1.7,0.2,2.5c0.1,0.8,0.4,1.6,0.8,2.4c0.4,0.7,0.9,1.4,1.5,2c0.6,0.6,1.3,1.1,2,1.5
	c0.7,0.4,1.6,0.6,2.4,0.8C9.1,50.9,10,51,10.8,51c0.4,0,0.8,0,1.2,0c0.5,0,0.9,0,1.4,0h126c0.4,0,0.9,0,1.4,0c0.4,0,0.8,0,1.2,0
	c0.8,0,1.7-0.1,2.5-0.2c0.8-0.1,1.6-0.4,2.4-0.8c0.7-0.4,1.4-0.9,2-1.5c0.6-0.6,1.1-1.3,1.5-2c0.4-0.7,0.6-1.6,0.8-2.4
	c0.1-0.8,0.2-1.7,0.2-2.5c0-0.4,0-0.8,0-1.2c0-0.5,0-0.9,0-1.4V12.9c0-0.5,0-0.9,0-1.4c0-0.4,0-0.8,0-1.2c0-0.8-0.1-1.7-0.2-2.5
	c-0.1-0.8-0.4-1.6-0.8-2.4c-0.8-1.5-2-2.7-3.5-3.5c-0.8-0.4-1.6-0.6-2.4-0.8c-0.8-0.1-1.7-0.2-2.5-0.2c-0.4,0-0.8,0-1.2,0
	C140.2,1,139.7,1,139.3,1L139.3,1z"/>
<path d="M32.7,25.9c0-2.2,1.2-4.2,3.1-5.4c-1.2-1.7-3.1-2.7-5.2-2.8c-2.2-0.2-4.3,1.3-5.4,1.3c-1.1,0-2.9-1.3-4.7-1.2
	c-2.4,0.1-4.6,1.4-5.8,3.5C12.1,25.6,14,32,16.4,35.5c1.2,1.7,2.6,3.6,4.5,3.6c1.8-0.1,2.5-1.1,4.7-1.1c2.2,0,2.8,1.1,4.7,1.1
	c1.9,0,3.2-1.7,4.3-3.5c0.9-1.2,1.5-2.6,2-4C34.2,30.6,32.7,28.4,32.7,25.9z"/>
<path d="M29.1,15.3c1.1-1.3,1.6-2.9,1.5-4.5C29,11,27.5,11.7,26.4,13c-1.1,1.2-1.6,2.8-1.5,4.4C26.5,17.4,28.1,16.6,29.1,15.3z"/>
<path class="st1" d="M48.4,34.9h5.9l1.4,4.2h2.6l-5.6-15.5h-2.6l-5.6,15.5H47L48.4,34.9z M53.7,33H49l2.3-6.8h0.1L53.7,33z"/>
<path class="st1" d="M65.7,39.2c2.8,0,4.7-2.3,4.7-5.8c0-3.5-1.9-5.8-4.8-5.8c-1.5,0-2.9,0.7-3.6,2h0v-1.9h-2.3v15.1h2.3v-5.6h0.1
	C62.9,38.5,64.2,39.3,65.7,39.2z M65,29.7c1.8,0,3,1.5,3,3.8l0,0c0,2.3-1.2,3.8-3,3.8c-1.8,0-3-1.5-3-3.8
	C62.1,31.2,63.3,29.7,65,29.7z"/>
<path class="st1" d="M78.2,39.2c2.8,0,4.7-2.3,4.7-5.8c0-3.5-1.9-5.8-4.8-5.8c-1.5,0-2.9,0.7-3.6,2h0v-1.9h-2.3v15.1h2.3v-5.6h0.1
	C75.3,38.5,76.7,39.3,78.2,39.2z M77.5,29.7c1.8,0,3,1.5,3,3.8c0,2.3-1.2,3.8-3,3.8c-1.8,0-3-1.5-3-3.8
	C74.6,31.2,75.7,29.7,77.5,29.7z"/>
<path d="M91.2,34.8c0.2,1.5,1.7,2.6,3.7,2.6c2,0,3.4-1,3.4-2.4c0-1.2-0.9-1.9-2.9-2.4l-2-0.5c-2.9-0.7-4.2-2-4.2-4.2
	c0-2.7,2.3-4.5,5.7-4.5c3.3,0,5.5,1.8,5.6,4.5h-2.3c-0.1-1.5-1.4-2.5-3.3-2.5c-1.9,0-3.2,0.9-3.2,2.3c0,1.1,0.8,1.7,2.8,2.2l1.7,0.4
	c3.2,0.8,4.5,2,4.5,4.3c0,2.9-2.3,4.7-6,4.7c-3.4,0-5.8-1.8-5.9-4.6L91.2,34.8z"/>
<path d="M105.7,25.1v2.7h2.2v1.8h-2.2v6.2c0,1,0.4,1.4,1.4,1.4c0.3,0,0.5,0,0.8-0.1v1.8c-0.4,0.1-0.9,0.1-1.3,0.1
	c-2.3,0-3.2-0.9-3.2-3.1v-6.5h-1.6v-1.8h1.6v-2.7H105.7z"/>
<path class="st1" d="M114.5,27.7c-3.3,0-5.4,2.2-5.4,5.8c0,3.6,2.1,5.8,5.4,5.8c3.3,0,5.4-2.2,5.4-5.8
	C119.9,29.9,117.8,27.7,114.5,27.7z M114.5,29.6c1.9,0,3,1.4,3,3.9l0,0c0,2.5-1.1,3.9-3,3.9c-1.9,0-3-1.4-3-3.9
	C111.5,31,112.6,29.6,114.5,29.6z"/>
<path d="M121.8,27.8h2.2v1.9h0.1c0.3-1.2,1.4-2.1,2.7-2c0.3,0,0.5,0,0.8,0.1v2.2c-0.3-0.1-0.7-0.2-1-0.1c-0.7,0-1.3,0.2-1.8,0.7
	c-0.5,0.5-0.7,1.2-0.6,1.9v6.7h-2.3V27.8z"/>
<path class="st1" d="M133.4,39.3c2.6,0,4.6-1.4,4.9-3.5l-2.2,0c-0.4,1.1-1.5,1.7-2.6,1.6c-0.8,0-1.7-0.3-2.2-0.9
	c-0.6-0.6-0.9-1.4-0.8-2.3V34h8v-0.8c0-3.4-2-5.6-5.1-5.6c-3.2,0-5.2,2.3-5.2,5.9C128.1,37.1,130.2,39.3,133.4,39.3z M136.1,32.4
	h-5.7c0-0.8,0.3-1.5,0.8-2c0.5-0.5,1.3-0.8,2-0.8c0.8,0,1.5,0.3,2,0.8C135.9,30.9,136.2,31.7,136.1,32.4z"/>
<path class="st1" d="M51.4,12.9c-0.7-0.7-1.6-1.1-2.6-1H46v7.5h2.7c2.2,0,3.5-1.4,3.5-3.8C52.4,14.6,52.1,13.7,51.4,12.9z
	 M48.6,18.3h-1.4V13h1.4c0.7,0,1.4,0.2,1.9,0.8c0.5,0.5,0.7,1.2,0.6,1.9c0.1,0.7-0.1,1.4-0.6,1.9C50,18.1,49.3,18.4,48.6,18.3z"/>
<path class="st1" d="M54.8,14c-0.9,0.5-1.3,1.5-1.3,2.5c-0.1,1,0.4,2,1.2,2.5c0.9,0.5,2,0.5,2.8,0c0.9-0.5,1.3-1.5,1.2-2.5
	c0.1-1-0.4-2-1.3-2.5C56.8,13.5,55.7,13.5,54.8,14z M56.2,14.6c1,0,1.5,0.7,1.5,1.9l0,0c0,1.2-0.5,1.9-1.5,1.9c-1,0-1.5-0.7-1.5-1.9
	C54.7,15.3,55.3,14.6,56.2,14.6z"/>
<path d="M65.9,19.4h-1.2l-1.2-4.1h-0.1l-1.2,4.1h-1.1l-1.6-5.6h1.1l1,4.3h0.1l1.2-4.3h1.1l1.2,4.3h0.1l1-4.3h1.1L65.9,19.4z"/>
<path d="M68.8,13.7h1.1v0.9H70c0.3-0.7,1-1.1,1.7-1c0.6,0,1.1,0.2,1.5,0.6c0.4,0.4,0.6,1,0.5,1.5v3.6h-1.1V16c0-0.9-0.4-1.4-1.2-1.4
	c-0.4,0-0.7,0.1-1,0.4c-0.3,0.3-0.4,0.6-0.3,1v3.3h-1.1V13.7z"/>
<path d="M75.4,11.5h1.1v7.8h-1.1V11.5z"/>
<path class="st1" d="M79.3,14c-0.9,0.5-1.3,1.5-1.3,2.5c-0.1,1,0.4,2,1.2,2.5c0.9,0.5,2,0.5,2.8,0c0.9-0.5,1.3-1.5,1.2-2.5
	c0.1-1-0.4-2-1.3-2.5C81.2,13.5,80.1,13.5,79.3,14z M80.7,14.6c1,0,1.5,0.7,1.5,1.9l0,0c0,1.2-0.5,1.9-1.5,1.9c-1,0-1.5-0.7-1.5-1.9
	C79.2,15.3,79.7,14.6,80.7,14.6z"/>
<path class="st1" d="M86.6,16.1c-1.3,0.1-2.1,0.7-2.1,1.7c0,0.5,0.2,0.9,0.6,1.3c0.4,0.3,0.8,0.5,1.3,0.4c0.7,0,1.3-0.3,1.7-0.9h0.1
	v0.8h1.1v-3.8c0-1.2-0.8-1.9-2.2-1.9c-1.3,0-2.2,0.6-2.3,1.6h1.1c0.1-0.4,0.6-0.6,1.2-0.6c0.8,0,1.2,0.3,1.2,0.9V16L86.6,16.1z
	 M88.1,16.8v0.5c0,0.4-0.2,0.7-0.5,0.9c-0.3,0.2-0.6,0.3-1,0.3c-0.6,0-1-0.3-1-0.8c0-0.5,0.4-0.8,1.1-0.8L88.1,16.8z"/>
<path class="st1" d="M93,13.7c-1.4,0-2.3,1.1-2.3,2.9c0,1.8,0.9,2.9,2.3,2.9c0.7,0,1.4-0.4,1.8-1h0.1v0.9H96v-7.8h-1.1v3.1h-0.1
	C94.4,14,93.8,13.6,93,13.7z M93.4,18.5c-0.9,0-1.5-0.7-1.5-1.9h0c0-1.2,0.6-1.9,1.5-1.9c0.9,0,1.5,0.7,1.5,1.9
	C94.9,17.7,94.3,18.5,93.4,18.5z"/>
<path class="st1" d="M101.8,14c-0.9,0.5-1.3,1.5-1.3,2.5c-0.1,1,0.4,2,1.2,2.5c0.9,0.5,2,0.5,2.8,0c0.9-0.5,1.3-1.5,1.2-2.5
	c0.1-1-0.4-2-1.3-2.5C103.8,13.5,102.7,13.5,101.8,14z M103.2,14.6c1,0,1.5,0.7,1.5,1.9c0,1.2-0.5,1.9-1.5,1.9c-1,0-1.5-0.7-1.5-1.9
	C101.7,15.3,102.3,14.6,103.2,14.6z"/>
<path d="M107.4,13.7h1.1v0.9h0.1c0.3-0.7,1-1.1,1.7-1c0.6,0,1.1,0.2,1.5,0.6c0.4,0.4,0.6,1,0.5,1.5v3.6h-1.1V16
	c0-0.9-0.4-1.4-1.2-1.4c-0.4,0-0.7,0.1-1,0.4c-0.3,0.3-0.4,0.6-0.3,1v3.3h-1.1V13.7z"/>
<path d="M118.5,12.3v1.4h1.2v0.9h-1.2v2.9c0,0.6,0.2,0.8,0.8,0.8c0.1,0,0.3,0,0.4,0v0.9c-0.2,0-0.4,0.1-0.6,0.1
	c-1.2,0-1.7-0.4-1.7-1.5v-3.2h-0.9v-0.9h0.9v-1.4H118.5z"/>
<path d="M121.2,11.5h1.1v3.1h0.1c0.3-0.7,1-1.1,1.7-1c0.6,0,1.1,0.2,1.5,0.6c0.4,0.4,0.5,1,0.5,1.5v3.6h-1.1V16
	c0-0.9-0.4-1.4-1.2-1.4c-0.4,0-0.8,0.1-1,0.4c-0.3,0.3-0.4,0.7-0.4,1v3.3h-1.1V11.5z"/>
<path class="st1" d="M130.1,19.5c1.1,0.1,2.1-0.6,2.4-1.6h-1.1c-0.3,0.5-0.8,0.7-1.3,0.7c-0.4,0-0.8-0.2-1.1-0.5
	c-0.3-0.3-0.4-0.7-0.4-1.1v-0.1h4v-0.4c0-1.8-0.9-2.8-2.5-2.8c-0.8,0-1.5,0.3-2,0.9c-0.5,0.6-0.7,1.3-0.6,2.1
	c-0.1,0.7,0.1,1.5,0.6,2.1C128.6,19.2,129.3,19.5,130.1,19.5z M131.5,16h-2.8c0-0.4,0.1-0.8,0.4-1c0.3-0.3,0.6-0.4,1-0.4
	c0.4,0,0.8,0.1,1,0.4C131.4,15.3,131.5,15.7,131.5,16z"/>
</svg>
