<?xml version="1.0" encoding="utf-8"?>
<!-- Generator: Adobe Illustrator 23.0.6, SVG Export Plug-In . SVG Version: 6.00 Build 0)  -->
<svg version="1.1" id="Layer_1" xmlns="http://www.w3.org/2000/svg" xmlns:xlink="http://www.w3.org/1999/xlink" x="0px" y="0px"
	 viewBox="0 0 400 400" style="enable-background:new 0 0 400 400;" xml:space="preserve">
<style type="text/css">
	.st0{opacity:0.15;fill:#292F33;enable-background:new    ;}
	.st1{fill:#FFFFFF;}
</style>
<g id="_x31_0_x2013_20_x25__Black_Tint">
	<rect y="0" class="st0" width="400" height="400"/>
</g>
<g id="Logo__x2014__FIXED">
	<g>
		<path class="st1" d="M126.2,361.6c150,0,232.1-124.4,232.1-232.1c0-3.5,0-7-0.2-10.5c15.9-11.5,29.7-25.9,40.7-42.3
			c-14.6,6.5-30.4,10.8-46.9,12.9c16.9-10,29.7-26.1,35.9-45.2c-15.7,9.4-33.2,16.1-51.9,19.7c-15-15.9-36.1-25.8-59.5-25.8
			c-45,0-81.6,36.6-81.6,81.6c0,6.4,0.8,12.6,2.1,18.6c-67.8-3.3-127.9-35.9-168.1-85.3c-7,12.1-11,26.1-11,41
			c0,28.3,14.5,53.3,36.3,67.9c-13.4-0.5-25.9-4.1-36.9-10.2c0,0.3,0,0.6,0,1.1c0,39.4,28.2,72.5,65.4,80c-6.8,1.9-14,2.9-21.5,2.9
			c-5.2,0-10.3-0.5-15.3-1.4c10.3,32.4,40.6,56,76.2,56.6c-28,22-63.1,35-101.3,35c-6.5,0-13-0.3-19.4-1.1
			C37.3,348.1,80.2,361.6,126.2,361.6"/>
	</g>
</g>
</svg>
